<svg xmlns="http://www.w3.org/2000/svg" width="708.134" height="708.06" viewBox="0 0 708.134 708.06">
  <g id="Grupo_1" data-name="Grupo 1" transform="translate(105 -104)">
    <g id="aripar" transform="translate(-128 835.66)">
      <path id="Trazado_1" data-name="Trazado 1" d="M354-730.9c-98.8,6.7-191.7,55.3-253.8,132.9C80.7-573.6,61-540.2,49.1-511.2A347.987,347.987,0,0,0,23-378.5a356.489,356.489,0,0,0,71.5,214C138.7-105.5,199.2-62.2,268.7-40a378.826,378.826,0,0,0,70.8,15.2c14.2,1.6,56.8,1.6,71,0,60.7-7.2,115.9-27.7,167-62.3,13.8-9.3,36.3-27.1,37.2-29.5.5-1.4-15.5-40.4-16.7-40.4-.3,0-4.2,3.2-8.5,7.2-50.8,45.6-107.3,73.4-169,83-18.9,3-61.6,3.2-80,.5-79.4-11.8-148.1-49-198.9-107.7-92.2-106.3-102-259.6-24.1-376.5,16.3-24.5,41.3-51.7,64-69.9,47.1-37.7,103.4-60.9,164.5-67.7,15.3-1.7,49.9-1.5,66,.5,60.8,7.4,115.6,30.4,162,67.9,10.3,8.4,30.6,28.3,39.9,39.2,46.9,54.8,72.7,120.4,75.7,193,1.5,36.2-5.4,81.1-17.4,113.8l-1.9,5.2,9.7,27.6c5.4,15.2,10,28.3,10.2,29,.6,1.7,3.8-5.1,12.3-26.1,15.2-37.6,24.1-72,27.6-106.5,1.6-16.1,1.3-52.4-.6-70-11.5-107-71.8-204.1-162.3-261.4-27.8-17.6-50.4-28.5-77.7-37.6A357.281,357.281,0,0,0,354-730.9Z" fill="#2f20ff"/>
      <path id="Trazado_2" data-name="Trazado 2" d="M473.8-545.3c-5.2,15.3-28.8,84.6-52.4,154.1L378.5-265H373c-7.2,0-22.6,2.4-32,5-9.9,2.7-29.8,12.6-38,18.9a164.558,164.558,0,0,0-14.7,13.4l-8.2,8.5-62.7-19.9c-34.6-10.9-63.1-19.6-63.5-19.1-.7.8-11,33.4-10.6,33.8.6.6,131,41.7,137.7,43.4,4.1,1.1,10.2,2.8,13.4,4a64.644,64.644,0,0,0,6.7,2c.4,0,1.4-2.1,2.3-4.6,3.1-9.3,8.8-17.8,17.5-26.4a71.667,71.667,0,0,1,32.7-19.2c14.8-4.2,37.6-2.6,52.8,3.7,2.1.9,3.9,1.5,4.1,1.3.1-.2,8.4-24.9,18.4-55.1L447.2-330h62.3c43.1,0,62.6.3,63,1.1.4.6,15.3,44.1,33.2,96.7,17.8,52.6,32.5,95.8,32.6,95.9.3.2,30.7-39.2,32.6-42.2,1.3-2.1-3.6-17.1-65.5-198.4L538.5-573H483.2Zm40.8,31c7.1,26.7,9.6,34.5,29.6,93.1,10.3,30.5,18.8,55.5,18.8,55.8,0,.2-23.8.4-53,.4-33.9,0-53-.4-53-1,0-.5,8.1-24.8,17.9-53.9,18.6-54.9,23.8-71.8,33.1-108,.6-2.3,1.4-4.1,1.6-3.8C509.9-531.4,512.2-523.6,514.6-514.3Z" fill="#2f20ff"/>
      <path id="Trazado_3" data-name="Trazado 3" d="M365-209.9c-7.4,1.2-20.6,7.9-26.8,13.4-6.1,5.5-12.4,15.1-15.3,23.7-3.3,9.4-3.2,24.7.3,34.4,13.9,39.2,63.3,50,91.5,20.1,31.9-33.8,10.1-89.3-36.2-92.1A63.769,63.769,0,0,0,365-209.9Z" fill="#2f20ff"/>
    </g>
    <g id="Rect치ngulo_1" data-name="Rect치ngulo 1" transform="translate(23.867 417.919) rotate(17)" fill="#ac914f" stroke="#707070" stroke-width="1">
      <rect width="187" height="153" rx="13" stroke="none"/>
      <rect x="0.5" y="0.5" width="186" height="152" rx="12.5" fill="none"/>
    </g>
    <g id="Rect치ngulo_2" data-name="Rect치ngulo 2" transform="translate(69.867 271.919) rotate(17)" fill="#ac914f" stroke="#707070" stroke-width="1">
      <rect width="187" height="153" rx="13" stroke="none"/>
      <rect x="0.5" y="0.5" width="186" height="152" rx="12.5" fill="none"/>
    </g>
  </g>
</svg>
