<?xml version="1.0" encoding="UTF-8"?>
<svg version="1.1" xmlns="http://www.w3.org/2000/svg" width="755.0px" height="755.0px"
    viewBox="0 0 755.000000 755.000000" preserveAspectRatio="xMidYMid meet"
    xmlns:xlink="http://www.w3.org/1999/xlink">

    <g transform="translate(0.000000,755.000000) scale(0.100000,-0.100000)" fill="#000000"
        stroke="none">
        <path d="M3540 7309 c-988 -67 -1917 -553 -2538 -1329 -195 -244 -392 -578
-511 -868 -173 -422 -261 -868 -261 -1327 0 -771 250 -1519 715 -2140 442
-590 1047 -1023 1742 -1245 229 -73 459 -122 708 -152 142 -16 568 -16 710 0
607 72 1159 277 1670 623 138 93 363 271 372 295 5 14 -155 404 -167 404 -3 0
-42 -32 -85 -72 -508 -456 -1073 -734 -1690 -830 -189 -30 -616 -32 -800 -5
-794 118 -1481 490 -1989 1077 -922 1063 -1020 2596 -241 3765 163 245 413
517 640 699 471 377 1034 609 1645 677 153 17 499 15 660 -5 608 -74 1156
-304 1620 -679 103 -84 306 -283 399 -392 469 -548 727 -1204 757 -1930 15
-362 -54 -811 -174 -1138 l-19 -52 97 -276 c54 -152 100 -283 102 -290 6 -17
38 51 123 261 152 376 241 720 276 1065 16 161 13 524 -6 700 -115 1070 -718
2041 -1623 2614 -278 176 -504 285 -777 376 -438 145 -900 204 -1355 174z" />
        <path d="M4738 5453 c-52 -153 -288 -846 -524 -1541 l-429 -1262 -55 0 c-72 0
-226 -24 -320 -50 -99 -27 -298 -126 -380 -189 -36 -27 -102 -88 -147 -134
l-82 -85 -627 199 c-346 109 -631 196 -635 191 -7 -8 -110 -334 -106 -338 6
-6 1310 -417 1377 -434 41 -11 102 -28 134 -40 33 -11 63 -20 67 -20 4 0 14
21 23 46 31 93 88 178 175 264 98 97 195 154 327 192 148 42 376 26 528 -37
21 -9 39 -15 41 -13 1 2 84 249 184 551 l183 547 623 0 c431 0 626 -3 630 -11
4 -6 153 -441 332 -967 178 -526 325 -958 326 -959 3 -2 307 392 326 422 13
21 -36 171 -655 1984 l-669 1961 -276 0 -277 0 -94 -277z m408 -310 c71 -267
96 -345 296 -931 103 -305 188 -555 188 -558 0 -2 -238 -4 -530 -4 -339 0
-530 4 -530 10 0 5 81 248 179 539 186 549 238 718 331 1080 6 23 14 41 16 38
3 -3 26 -81 50 -174z" />
        <path d="M3650 2099 c-74 -12 -206 -79 -268 -134 -61 -55 -124 -151 -153 -237
-33 -94 -32 -247 3 -344 139 -392 633 -500 915 -201 319 338 101 893 -362 921
-44 3 -105 1 -135 -5z" />
    </g>
</svg>
