<?xml version="1.0" encoding="utf-8"?>
<!-- Svg Vector Icons : http://www.onlinewebfonts.com/icon -->
<!DOCTYPE svg PUBLIC "-//W3C//DTD SVG 1.1//EN" "http://www.w3.org/Graphics/SVG/1.1/DTD/svg11.dtd">
<svg version="1.1" xmlns="http://www.w3.org/2000/svg" x="0px" y="0px" viewBox="0 0 1000 1000"
    enable-background="new 0 0 1000 1000" xml:space="preserve">
<metadata> Svg Vector Icons : http://www.onlinewebfonts.com/icon </metadata>
<g><g transform="translate(0.000000,511.000000) scale(0.100000,-0.100000)"><path d="M7936.1,3245.8l-752.3-1616.1l-386.9-5.9c-211-2-385,1.9-383,9.8c0,9.8,152.4,142.6,340,297l340,283.3l-50.8,58.6c-29.3,33.2-363.5,431.9-744.5,887.2c-381.1,453.4-699.6,824.6-709.3,824.6c-11.7,0-291.2-228.6-625.3-510l-607.7-510l-519.8,177.8c-285.3,97.7-525.7,172-533.5,164.1c-11.7-13.7-127-343.9-558.9-1602.4l-29.3-84h-300.9h-299l-19.5,74.2c-9.8,39.1-144.6,566.7-297,1172.5l-277.5,1098.2H809.3H100v-166.1v-166.1h576.5c482.7,0,580.4-3.9,588.2-27.4c37.1-95.8,1645.4-6550.2,1633.7-6554.1c-7.8-3.9-115.3-64.5-238.4-138.8l-224.7-130.9l-5.9-478.8l-3.9-478.8l422.1-242.3c332.2-189.6,427.9-238.4,453.3-222.8c17.6,11.7,207.1,119.2,420.1,240.4l385,222.8v230.6v232.5h1494.9h1494.9v-230.6V-4176l406.5-232.5c222.8-129,418.2-234.5,433.8-234.5c17.6,0,213,105.5,435.8,232.5l404.5,234.5v474.9v474.8l-72.3,44.9c-41,25.4-230.6,136.8-420.1,246.2L7938-2735.8l-416.2-240.4l-416.2-240.4l-5.9-84l-5.9-82.1H5598.9H4106v84l-2,82.1l-416.2,240.4c-230.6,130.9-431.9,234.5-445.5,228.7c-21.5-9.8-41,33.2-76.2,170l-48.9,181.7l2657.6,9.8l2659.6,9.8l500.2,1999.1L9436.8,1620H9048c-215,0-388.9,3.9-388.9,7.8c0,7.8,1227.2,2645.9,1240.9,2671.3c7.8,9.8-1168.6,564.7-1195.9,564.7C8694.3,4863.8,8350.3,4134.9,7936.1,3245.8z M9348.9,4205.3c62.5-29.3,109.4-60.6,105.5-72.3c-5.9-11.7-271.6-582.3-590.2-1266.3L8281.9,1620h-357.6c-226.7,0-359.6,7.8-359.6,19.5c0,9.8,291.2,642.9,646.8,1405l646.8,1387.4l187.6-89.9C9151.5,4293.2,9286.4,4232.6,9348.9,4205.3z M6091.3,2888.2C6380.6,2542.3,6617,2259,6617,2255c0-2-168-146.6-375.2-320.5L5866.6,1620h-332.2c-254,0-334.2,5.9-334.2,25.4c0,11.7,68.4,220.8,154.4,463.1c84,242.3,146.6,445.5,140.7,453.4c-5.9,7.8-177.8,70.3-381.1,140.7c-203.2,70.4-371.3,130.9-375.2,134.8c-11.7,9.8,779.7,676.1,805.1,676.1C5555.9,3515.5,5802.1,3234.1,6091.3,2888.2z M4309.2,2626.3c416.2-142.7,762.1-265.8,766-269.7c5.9-3.9-46.9-170-115.3-367.4l-125.1-359.6l-885.2-5.9c-805.1-3.9-883.3-2-871.5,27.4c5.9,17.6,105.5,302.9,218.9,635.1c115.3,332.2,218.9,603.8,230.6,603.8C3539.3,2890.1,3891,2770.9,4309.2,2626.3z M9006.9,1264.3c-5.9-13.7-193.4-762.1-418.2-1662.9l-408.4-1635.6l-2577.5,3.9l-2579.4,5.9L2609.1-367.4l-414.3,1655.2h3410C8324.9,1287.7,9012.8,1281.9,9006.9,1264.3z M3529.5-3267.3l244.3-138.8v-287.3v-285.3l-242.3-142.6c-134.8-76.2-252.1-140.7-263.8-140.7s-123.1,60.6-250.1,134.8l-230.6,132.9v300.9v299l224.7,130.9c123.1,72.3,236.5,132.9,250.1,132.9C3273.5-3128.6,3394.7-3191.1,3529.5-3267.3z M8201.8-3269.3l242.3-140.7v-285.3v-283.4l-246.2-142.6c-134.8-78.2-256-140.7-269.7-136.8c-11.7,3.9-130.9,66.4-261.8,140.7L7428-3980.6v277.5c0,224.7,5.9,281.4,29.3,300.9c54.7,44.9,449.4,271.6,474.8,271.6C7945.8-3128.6,8067-3191.1,8201.8-3269.3z"/></g></g>
</svg>